Coordinates
version=1
nRows=16
nColumns=33
inDegrees=yes

Units are S.I. units (second, meters, Newtons, ...)
Angles are in degrees.

endheader
time	ground_thorax_rot_x	ground_thorax_rot_y	ground_thorax_rot_z	ground_thorax_tx	ground_thorax_ty	ground_thorax_tz	clav_prot_r	clav_elev_r	scapula_abduction_r	scapula_elevation_r	scapula_upward_rot_r	scapula_winging_r	shoulder_elv_r	plane_of_elev_r	axial_rot_r	elbow_flexion_r	pro_sup_r	wrist_flex_r	wrist_dev_r	clav_prot_l	clav_elev_l	scapula_abduction_l	scapula_elevation_l	scapula_upward_rot_l	scapula_winging_l	shoulder_elv_l	plane_of_elev_l	axial_rot_l	elbow_flexion_l	pro_sup_l	wrist_flex_l	wrist_dev_l	
10.1400	-19.717512	-35.956215	56.983241	89.154631	768.884525	-41.322624	28.564583	-45.000000	39.448728	-45.000000	-45.000000	-4059.525665	-2629.175335	161.800300	40.480141	720.709716	174.927074	13.053426	12.765603	-0.961630	29.788681	-24.963735	-45.000000	-45.000000	-3881.215847	-1005.681545	25.773107	46.740871	1429.411440	40.720362	12.026726	-14.161177	
10.1500	-19.826129	-35.749679	56.798320	88.728641	768.324401	-41.288796	28.527767	-45.000000	39.400971	-45.000000	-45.000000	-4059.595108	-2629.108987	161.809612	40.723155	720.729027	174.963973	13.042984	12.734257	-0.954123	29.699859	-25.017065	-45.000000	-45.000000	-3881.202574	-1005.701785	25.770927	46.701595	1429.434856	41.287378	11.952436	-14.283129	
10.1600	-19.954763	-35.536615	56.585383	88.264481	767.777135	-41.260198	28.508788	-45.000000	39.341846	-45.000000	-45.000000	-4059.678390	-2629.044716	161.797727	41.009199	720.735711	175.030157	13.033123	12.706556	-0.938944	29.491149	-25.083369	-45.000000	-45.000000	-3881.191467	-1005.723640	25.769274	46.646016	1429.444299	41.801092	11.873449	-14.439248	
10.1700	-20.056356	-35.343720	56.387699	87.714003	767.257739	-41.240301	28.498181	-45.000000	39.310156	-45.000000	-45.000000	-4059.739616	-2628.976290	161.797247	41.269584	720.762233	175.119579	13.026402	12.667342	-0.930495	29.406495	-25.116942	-45.000000	-45.000000	-3881.181603	-1005.738104	25.760589	46.591855	1429.459731	42.166730	11.802110	-14.541859	
10.1800	-20.146720	-35.164597	56.191467	87.074670	766.767396	-41.232044	28.493631	-45.000000	39.290986	-45.000000	-45.000000	-4059.791482	-2628.903077	161.800646	41.525765	720.793536	175.255066	13.028227	12.618320	-0.924042	29.378362	-25.131750	-45.000000	-45.000000	-3881.168816	-1005.745855	25.749368	46.529861	1429.476186	42.411300	11.737031	-14.609591	
10.1900	-20.230434	-34.996733	55.989474	86.337080	766.308891	-41.238428	28.499861	-45.000000	39.280881	-45.000000	-45.000000	-4059.835161	-2628.824588	161.802040	41.792196	720.829421	175.454705	13.038010	12.560631	-0.914321	29.376324	-25.127523	-45.000000	-45.000000	-3881.160029	-1005.746470	25.732702	46.454323	1429.495133	42.542750	11.673921	-14.657921	
10.2000	-20.311050	-34.836443	55.786146	85.503368	765.881051	-41.261629	28.503992	-45.000000	39.274208	-45.000000	-45.000000	-4059.878770	-2628.737615	161.807581	42.062816	720.861222	175.729628	13.062216	12.491441	-0.908244	29.410268	-25.120994	-45.000000	-45.000000	-3881.140077	-1005.743360	25.717780	46.369946	1429.510509	42.600020	11.621521	-14.677972	
10.2100	-20.398617	-34.675966	55.569869	84.579711	765.480659	-41.302792	28.511260	-45.000000	39.263314	-45.000000	-45.000000	-4059.926583	-2628.643267	161.807654	42.358104	720.887704	176.087436	13.095920	12.416280	-0.898499	29.423396	-25.117751	-45.000000	-45.000000	-3881.119310	-1005.737842	25.701271	46.271283	1429.522498	42.620168	11.572779	-14.700819	
10.2200	-20.491794	-34.515165	55.346933	83.570445	765.104505	-41.361967	28.510070	-45.000000	39.250169	-45.000000	-45.000000	-4059.980334	-2628.543303	161.807332	42.663450	720.911401	176.519654	13.138906	12.334471	-0.895328	29.444825	-25.129019	-45.000000	-45.000000	-3881.079700	-1005.737572	25.691877	46.168805	1429.529738	42.632613	11.536397	-14.710218	
10.2300	-20.591291	-34.350325	55.115269	82.477940	764.749451	-41.438295	28.507870	-45.000000	39.234178	-45.000000	-45.000000	-4060.041597	-2628.436183	161.803080	42.987150	720.929969	177.016696	13.186331	12.251631	-0.892527	29.450802	-25.152599	-45.000000	-45.000000	-3881.035538	-1005.737372	25.681956	46.057959	1429.530360	42.651796	11.508293	-14.726241	
10.2400	-20.695506	-34.183124	54.879705	81.302964	764.412879	-41.530144	28.497417	-45.000000	39.216119	-45.000000	-45.000000	-4060.112089	-2628.323955	161.798560	43.320562	720.943654	177.562516	13.237248	12.169399	-0.894900	29.459299	-25.190663	-45.000000	-45.000000	-3880.979370	-1005.739007	25.675040	45.942952	1429.525078	42.688036	11.491613	-14.738878	
10.2500	-20.799731	-34.015172	54.641913	80.044703	764.092800	-41.635244	28.485917	-45.000000	39.198248	-45.000000	-45.000000	-4060.186949	-2628.203543	161.795554	43.662697	720.951687	178.143151	13.288384	12.092482	-0.893648	29.471612	-25.229166	-45.000000	-45.000000	-3880.929979	-1005.733830	25.660743	45.816575	1429.517594	42.743030	11.480214	-14.758580	
10.2600	-20.905128	-33.848825	54.399225	78.701663	763.788348	-41.750782	28.470524	-45.000000	39.181471	-45.000000	-45.000000	-4060.264587	-2628.079997	161.792164	44.008098	720.959523	178.742929	13.336933	12.022989	-0.892317	29.488094	-25.268111	-45.000000	-45.000000	-3880.878880	-1005.728250	25.644723	45.683447	1429.511441	42.817126	11.474016	-14.778869	
10.2700	-21.008031	-33.684460	54.156816	77.271786	763.499724	-41.873544	28.455173	-45.000000	39.167478	-45.000000	-45.000000	-4060.344839	-2627.948873	161.793946	44.346562	720.961697	179.348187	13.384387	11.962194	-0.888786	29.521137	-25.304393	-45.000000	-45.000000	-3880.833106	-1005.714735	25.621746	45.543849	1429.503176	42.908057	11.473719	-14.800813	
10.2800	-21.114786	-33.521687	53.906873	75.753334	763.228218	-42.000011	28.438673	-45.000000	39.154169	-45.000000	-45.000000	-4060.427638	-2627.817651	161.795418	44.677767	720.964730	179.945004	13.427269	11.911801	-0.886446	29.555251	-25.342704	-45.000000	-45.000000	-3880.783520	-1005.701497	25.597959	45.405473	1429.494992	43.011908	11.477327	-14.825331	
10.2900	-21.224761	-33.360702	53.649877	74.144975	762.975823	-42.126478	28.423683	-45.000000	39.142340	-45.000000	-45.000000	-4060.511921	-2627.685197	161.798983	44.991466	720.966288	180.519947	13.466196	11.872323	-0.884669	29.595491	-25.383579	-45.000000	-45.000000	-3880.730501	-1005.686339	25.571707	45.271015	1429.483995	43.124881	11.485854	-14.852560	
